<?xml version="1.0" encoding="UTF-8" standalone="no"?>
<!-- Created with Inkscape (http://www.inkscape.org/) -->

<svg
   xmlns:dc="http://purl.org/dc/elements/1.1/"
   xmlns:cc="http://creativecommons.org/ns#"
   xmlns:rdf="http://www.w3.org/1999/02/22-rdf-syntax-ns#"
   xmlns:svg="http://www.w3.org/2000/svg"
   xmlns="http://www.w3.org/2000/svg"
   xmlns:sodipodi="http://sodipodi.sourceforge.net/DTD/sodipodi-0.dtd"
   xmlns:inkscape="http://www.inkscape.org/namespaces/inkscape"
   version="1.1"
   id="svg3699"
   width="225"
   height="200"
   viewBox="0 0 225 200"
   sodipodi:docname="heart.svg"
   inkscape:version="0.92.2 (5c3e80d, 2017-08-06)">
  <metadata
     id="metadata3705">
    <rdf:RDF>
      <cc:Work
         rdf:about="">
        <dc:format>image/svg+xml</dc:format>
        <dc:type
           rdf:resource="http://purl.org/dc/dcmitype/StillImage" />
        <dc:title></dc:title>
      </cc:Work>
    </rdf:RDF>
  </metadata>
  <defs
     id="defs3703">
    <clipPath
       clipPathUnits="userSpaceOnUse"
       id="clipPath4695">
      <rect
         id="rect4697"
         width="12.848511"
         height="16.853756"
         x="186.62067"
         y="51.854584"
         style="opacity:0.55714285;stroke-width:0.8952468" />
    </clipPath>
  </defs>
  <sodipodi:namedview
     pagecolor="#ffffff"
     bordercolor="#666666"
     borderopacity="1"
     objecttolerance="10"
     gridtolerance="10"
     guidetolerance="10"
     inkscape:pageopacity="0"
     inkscape:pageshadow="2"
     inkscape:window-width="1177"
     inkscape:window-height="851"
     id="namedview3701"
     showgrid="true"
     inkscape:showpageshadow="false"
     borderlayer="true"
     inkscape:snap-global="true"
     inkscape:snap-bbox="true"
     inkscape:object-nodes="false"
     inkscape:snap-others="false"
     inkscape:snap-to-guides="false"
     inkscape:zoom="0.55722071"
     inkscape:cx="303.51589"
     inkscape:cy="-272.98288"
     inkscape:window-x="284"
     inkscape:window-y="86"
     inkscape:window-maximized="0"
     inkscape:current-layer="svg3699">
    <inkscape:grid
       type="xygrid"
       id="grid4699"
       spacingx="25"
       spacingy="25"
       empspacing="1"
       dotted="true" />
  </sodipodi:namedview>
  <path
     inkscape:connector-curvature="0"
     style="fill:#000000;fill-opacity:1"
     d="m 100,175 h 25 v 25 h -25 z"
     id="rect4754-5" />
  <path
     inkscape:connector-curvature="0"
     style="fill:#000000;fill-opacity:1"
     d="m 125,150 h 25 v 25 h -25 z"
     id="rect4754-9" />
  <path
     inkscape:connector-curvature="0"
     style="fill:#000000;fill-opacity:1"
     d="m 150,125 h 25 v 25 h -25 z"
     id="rect4754-7" />
  <path
     inkscape:connector-curvature="0"
     style="fill:#000000;fill-opacity:1"
     d="m 175,100 h 25 v 25 h -25 z"
     id="rect4754-8" />
  <path
     inkscape:connector-curvature="0"
     style="fill:#000000;fill-opacity:1"
     d="m 200,75 h 25 v 25 h -25 z"
     id="rect4754-2" />
  <path
     inkscape:connector-curvature="0"
     style="fill:#000000;fill-opacity:1"
     d="m 200,50 h 25 v 25 h -25 z"
     id="rect4754-96" />
  <path
     inkscape:connector-curvature="0"
     style="fill:#000000;fill-opacity:1"
     d="m 200,25 h 25 v 25 h -25 z"
     id="rect4754-77" />
  <path
     inkscape:connector-curvature="0"
     style="fill:#000000;fill-opacity:1"
     d="m 175,0 h 25 v 25 h -25 z"
     id="rect4754-55" />
  <path
     inkscape:connector-curvature="0"
     style="fill:#000000;fill-opacity:1"
     d="m 150,0 h 25 v 25 h -25 z"
     id="rect4754-84" />
  <path
     inkscape:connector-curvature="0"
     style="fill:#000000;fill-opacity:1"
     d="m 125,0 h 25 v 25 h -25 z"
     id="rect4754-6" />
  <path
     inkscape:connector-curvature="0"
     style="fill:#000000;fill-opacity:1"
     d="m 100,25 h 25 v 25 h -25 z"
     id="rect4754-969" />
  <path
     inkscape:connector-curvature="0"
     style="fill:#000000;fill-opacity:1"
     d="m 75,0 h 25 V 25 H 75 Z"
     id="rect4754-846" />
  <path
     inkscape:connector-curvature="0"
     style="fill:#000000;fill-opacity:1"
     d="M 50,0 H 75 V 25 H 50 Z"
     id="rect4754-1" />
  <path
     inkscape:connector-curvature="0"
     style="fill:#000000;fill-opacity:1"
     d="M 25,0 H 50 V 25 H 25 Z"
     id="rect4754-4" />
  <path
     inkscape:connector-curvature="0"
     style="fill:#000000;fill-opacity:1"
     d="M 0,25 H 25 V 50 H 0 Z"
     id="rect4754-82" />
  <path
     inkscape:connector-curvature="0"
     style="fill:#000000;fill-opacity:1"
     d="M 0,50 H 25 V 75 H 0 Z"
     id="rect4754-80" />
  <path
     inkscape:connector-curvature="0"
     style="fill:#000000;fill-opacity:1"
     d="m 0,75 h 25 v 25 H 0 Z"
     id="rect4754-81" />
  <path
     inkscape:connector-curvature="0"
     style="fill:#000000;fill-opacity:1"
     d="m 25,100 h 25 v 25 H 25 Z"
     id="rect4754-50" />
  <path
     inkscape:connector-curvature="0"
     style="fill:#000000;fill-opacity:1"
     d="m 75,150 h 25 v 25 H 75 Z"
     id="rect4754" />
  <path
     inkscape:connector-curvature="0"
     style="fill:#060000;fill-opacity:1"
     d="m 50,125 h 25 v 25 H 50 Z"
     id="rect4754-14" />
  <path
     inkscape:connector-curvature="0"
     style="fill:#a40000;fill-opacity:1"
     d="m 100,75 h 25 v 25 h -25 z"
     id="rect4754-42" />
  <path
     inkscape:connector-curvature="0"
     style="fill:#a40000;fill-opacity:1"
     d="m 125,50 h 25 v 25 h -25 z"
     id="rect4754-42-9" />
  <path
     inkscape:connector-curvature="0"
     style="fill:#a40000;fill-opacity:1"
     d="m 150,50 h 25 v 25 h -25 z"
     id="rect4754-42-4" />
  <path
     inkscape:connector-curvature="0"
     style="fill:#e00000;fill-opacity:1"
     d="m 125,25 h 25 v 25 h -25 z"
     id="rect4754-42-0" />
  <path
     inkscape:connector-curvature="0"
     style="fill:#e00000;fill-opacity:1"
     d="m 150,25 h 25 v 25 h -25 z"
     id="rect4754-42-1" />
  <path
     inkscape:connector-curvature="0"
     style="fill:#e00000;fill-opacity:1"
     d="m 175,25 h 25 v 25 h -25 z"
     id="rect4754-42-5" />
  <path
     inkscape:connector-curvature="0"
     style="fill:#e00000;fill-opacity:1"
     d="m 175,50 h 25 v 25 h -25 z"
     id="rect4754-42-3" />
  <path
     inkscape:connector-curvature="0"
     style="fill:#e00000;fill-opacity:1"
     d="m 175,75 h 25 v 25 h -25 z"
     id="rect4754-42-46" />
  <path
     inkscape:connector-curvature="0"
     style="fill:#a40000;fill-opacity:1"
     d="m 150,75 h 25 v 25 h -25 z"
     id="rect4754-42-94" />
  <path
     inkscape:connector-curvature="0"
     style="fill:#a40000;fill-opacity:1"
     d="m 125,75 h 25 v 25 h -25 z"
     id="rect4754-42-59" />
  <path
     inkscape:connector-curvature="0"
     style="fill:#a40000;fill-opacity:1"
     d="m 125,100 h 25 v 25 h -25 z"
     id="rect4754-42-02" />
  <path
     inkscape:connector-curvature="0"
     style="fill:#a40000;fill-opacity:1"
     d="m 150,100 h 25 v 25 h -25 z"
     id="rect4754-42-95" />
  <path
     inkscape:connector-curvature="0"
     style="fill:#a40000;fill-opacity:1"
     d="m 125,125 h 25 v 25 h -25 z"
     id="rect4754-42-07" />
  <path
     inkscape:connector-curvature="0"
     style="fill:#a40000;fill-opacity:1"
     d="m 100,125 h 25 v 25 h -25 z"
     id="rect4754-42-6" />
  <path
     inkscape:connector-curvature="0"
     style="fill:#881c1c;fill-opacity:1"
     d="m 100,150 h 25 v 25 h -25 z"
     id="rect4754-42-7" />
  <path
     inkscape:connector-curvature="0"
     style="fill:#a40000;fill-opacity:1"
     d="m 100,100 h 25 v 25 h -25 z"
     id="rect4754-42-44" />
  <path
     inkscape:connector-curvature="0"
     style="fill:#a40000;fill-opacity:1"
     d="m 100,50 h 25 v 25 h -25 z"
     id="rect4754-42-33" />
  <path
     inkscape:connector-curvature="0"
     style="fill:#a40000;fill-opacity:1"
     d="m 75,50 h 25 V 75 H 75 Z"
     id="rect4754-42-51" />
  <path
     inkscape:connector-curvature="0"
     style="fill:#a40000;fill-opacity:1"
     d="m 75,25 h 25 V 50 H 75 Z"
     id="rect4754-42-8" />
  <path
     inkscape:connector-curvature="0"
     style="fill:#a40000;fill-opacity:1"
     d="M 50,25 H 75 V 50 H 50 Z"
     id="rect4754-42-88" />
  <path
     inkscape:connector-curvature="0"
     style="fill:#881c1c;fill-opacity:1"
     d="M 25,25 H 50 V 50 H 25 Z"
     id="rect4754-42-16" />
  <path
     inkscape:connector-curvature="0"
     style="fill:#881c1c;fill-opacity:1"
     d="M 25,50 H 50 V 75 H 25 Z"
     id="rect4754-42-441" />
  <path
     inkscape:connector-curvature="0"
     style="fill:#a40000;fill-opacity:1"
     d="M 50,50 H 75 V 75 H 50 Z"
     id="rect4754-42-12" />
  <path
     inkscape:connector-curvature="0"
     style="fill:#881c1c;fill-opacity:1"
     d="m 25,75 h 25 v 25 H 25 Z"
     id="rect4754-42-30" />
  <path
     inkscape:connector-curvature="0"
     style="fill:#a40000;fill-opacity:1"
     d="m 50,75 h 25 v 25 H 50 Z"
     id="rect4754-42-11" />
  <path
     inkscape:connector-curvature="0"
     style="fill:#a40000;fill-opacity:1"
     d="m 75,75 h 25 v 25 H 75 Z"
     id="rect4754-42-87" />
  <path
     inkscape:connector-curvature="0"
     style="fill:#a40000;fill-opacity:1"
     d="m 75,100 h 25 v 25 H 75 Z"
     id="rect4754-42-13" />
  <path
     inkscape:connector-curvature="0"
     style="fill:#881c1c;fill-opacity:1"
     d="m 50,100 h 25 v 25 H 50 Z"
     id="rect4754-42-36" />
  <path
     inkscape:connector-curvature="0"
     style="fill:#881c1c;fill-opacity:1"
     d="m 75,125 h 25 v 25 H 75 Z"
     id="rect4754-42-57" />
</svg>
